<svg width="74" height="79" viewBox="0 0 74 79" fill="none" xmlns="http://www.w3.org/2000/svg">
<g clip-path="url(#clip0_0_685)">
<path d="M2.18371 10.7806C15.4274 27.7995 35.4837 66.9833 19.1567 67.2132C15.1924 67.2707 1.12657 56.6627 18.8337 27.8857C27.2321 14.2016 40.7107 9.60189 44.117 17.6226C50.6655 33.0317 25.8813 54.3053 46.3782 66.8395C49.1091 68.5069 52.1337 69.6856 55.1877 70.6055C56.421 70.9793 66.6988 73.8828 67.1393 73.0204L74.0107 57.0076C74.0107 57.0076 43.2655 61.4924 52.4274 41.6274C56.744 32.2555 65.3774 19.7787 57.1258 9.91812C26.2631 -26.8221 -28.2972 76.0964 17.7472 78.9713C54.4829 81.2424 24.4131 13.5979 16.6607 0C11.6393 3.27729 7.20514 7.50328 2.18371 10.7806Z" fill="#003566"/>
</g>
<defs>
<clipPath id="clip0_0_685">
<rect width="74" height="79" fill="white"/>
</clipPath>
</defs>
</svg>
